<svg xmlns="http://www.w3.org/2000/svg" viewBox="0 0 792 612" height="100%">
    <defs>
        <style>
            .cls-2{fill:#5f9ea0;}
        </style>
    </defs>
    <g id="Layer_2" data-name="Layer 2">
        <path class="cls-1" d="M256.49,495.8V315.21l1.16-.54c3.75,36.29,19.59,65.19,50.81,84.52s64.17,20.81,98.45,8.12l.15,1.7Z"/>
        <path class="cls-1" d="M256.35,301.24V120.63l150,86.77-.15,1.5c-34.14-12.4-66.95-10.73-97.93,8.56s-46.88,48.16-50.57,84.34Z"/>
        <path class="cls-1" d="M429.1,394.48c27.39-21.52,42.31-49.61,42.95-84.28s-13.33-63.35-40.08-86c3-.51,139,77,149,84.56L430.17,395.69Z"/>
    </g>
    <g id="Layer_1" data-name="Layer 1">
        <path class="cls-2" d="M447,297c-10.29,0-20.27,0-30.25,0-1.6,0-2.28-.57-2.73-2.27-5.4-20.11-18.47-32.79-38.62-37.16-16.6-3.6-31.65.8-44.28,12.5-11.69,10.84-17,24.45-15.91,40.1,1.17,16.82,9.25,30.06,23.56,39.21a47.61,47.61,0,0,0,29.47,7.54c15.09-1.07,27.48-7.54,36.9-19.58a46.93,46.93,0,0,0,8.9-18.71c.35-1.51,1-2.14,2.46-2.14H446.8c-2.9,35.05-33.05,70.05-76.3,72.55-47.86,2.76-84.88-33-87.49-77.14-2.83-47.91,33.19-84.81,77.14-87.5C407.21,221.55,442.76,257.16,447,297Z"/>
    </g>
</svg>